<svg width="2283" height="858" viewBox="0 0 2283 858" fill="none" xmlns="http://www.w3.org/2000/svg">
<g clip-path="url(#clip0)">
<path fill-rule="evenodd" clip-rule="evenodd" d="M1387.2 636.949C1268.59 724.362 1096.68 771 948.665 771C741.127 771 554.289 694.247 412.939 566.592C401.834 556.554 411.784 542.874 425.111 550.691C577.655 639.437 766.27 692.826 961.103 692.826C1092.5 692.826 1237.05 665.643 1369.96 609.233C1390.04 600.705 1406.83 622.38 1387.2 636.949" fill="#9FA6B2"/>
<path fill-rule="evenodd" clip-rule="evenodd" d="M1436.5 580.539C1421.4 561.174 1336.29 571.39 1298.09 575.92C1286.45 577.341 1284.67 567.214 1295.15 559.93C1362.94 512.226 1474.17 525.995 1487.15 541.985C1500.12 558.064 1483.77 669.551 1420.07 722.763C1410.3 730.936 1400.97 726.583 1405.32 715.745C1419.62 680.034 1451.7 599.994 1436.5 580.539" fill="#9FA6B2"/>
<path fill-rule="evenodd" clip-rule="evenodd" d="M1300.75 223.159V176.788C1300.75 169.77 1306.08 165.062 1312.48 165.062H1520.11C1526.77 165.062 1532.1 169.859 1532.1 176.788V216.497C1532.01 223.159 1526.41 231.865 1516.46 245.634L1408.87 399.229C1448.85 398.251 1491.05 404.203 1527.3 424.635C1535.48 429.255 1537.7 436.006 1538.32 442.669V492.149C1538.32 498.901 1530.86 506.807 1523.04 502.72C1459.16 469.23 1374.31 465.588 1303.68 503.076C1296.49 506.985 1288.94 499.167 1288.94 492.416V445.422C1288.94 437.872 1289.02 424.99 1296.58 413.531L1421.22 234.796H1312.75C1306.08 234.796 1300.75 230.088 1300.75 223.159" fill="#9FA6B2"/>
<path fill-rule="evenodd" clip-rule="evenodd" d="M543.361 512.492H480.194C474.152 512.048 469.355 507.518 468.911 501.743V177.587C468.911 171.102 474.33 165.95 481.082 165.95H539.985C546.116 166.216 551.002 170.925 551.446 176.788V219.162H552.601C567.971 178.209 596.845 159.11 635.759 159.11C675.294 159.11 699.992 178.209 717.761 219.162C733.042 178.209 767.78 159.11 805.005 159.11C831.481 159.11 860.444 170.036 878.124 194.554C898.113 221.827 894.026 261.447 894.026 296.181L893.938 500.766C893.938 507.251 888.518 512.492 881.766 512.492H818.687C812.379 512.048 807.315 506.985 807.315 500.766V328.961C807.315 315.28 808.559 281.168 805.538 268.198C800.83 246.434 786.704 240.304 768.402 240.304C753.121 240.304 737.129 250.52 730.643 266.866C724.158 283.211 724.78 310.572 724.78 328.961V500.766C724.78 507.251 719.36 512.492 712.608 512.492H649.529C643.133 512.048 638.157 506.985 638.157 500.766L638.069 328.961C638.069 292.805 644.021 239.593 599.155 239.593C553.756 239.593 555.533 291.473 555.533 328.961V500.766C555.533 507.251 550.114 512.492 543.361 512.492" fill="#9FA6B2"/>
<path fill-rule="evenodd" clip-rule="evenodd" d="M1710.85 159.11C1804.58 159.11 1855.31 239.593 1855.31 341.931C1855.31 440.803 1799.25 519.244 1710.85 519.244C1618.81 519.244 1568.7 438.76 1568.7 338.466C1568.7 237.55 1619.43 159.11 1710.85 159.11V159.11ZM1711.39 225.291C1664.83 225.291 1661.9 288.719 1661.9 328.25C1661.9 367.87 1661.28 452.44 1710.85 452.44C1759.81 452.44 1762.12 384.216 1762.12 342.641C1762.12 315.28 1760.96 282.589 1752.7 256.65C1745.59 234.086 1731.46 225.291 1711.39 225.291" fill="#9FA6B2"/>
<path fill-rule="evenodd" clip-rule="evenodd" d="M1976.85 512.492H1913.95C1907.64 512.048 1902.58 506.985 1902.58 500.766L1902.49 176.521C1903.02 170.569 1908.26 165.95 1914.66 165.95H1973.21C1978.72 166.216 1983.25 169.947 1984.49 175.011V224.58H1985.65C2003.33 180.252 2028.11 159.11 2071.74 159.11C2100.08 159.11 2127.71 169.326 2145.48 197.308C2162 223.248 2162 266.866 2162 298.224V502.276C2161.29 507.962 2156.05 512.492 2149.83 512.492H2086.48C2080.71 512.048 2075.91 507.784 2075.29 502.276V326.207C2075.29 290.762 2079.38 238.883 2035.75 238.883C2020.38 238.883 2006.26 249.188 1999.24 264.822C1990.35 284.632 1989.2 304.354 1989.2 326.207V500.766C1989.11 507.251 1983.6 512.492 1976.85 512.492" fill="#9FA6B2"/>
<path fill-rule="evenodd" clip-rule="evenodd" d="M1135.24 357.654C1135.24 382.261 1135.86 402.782 1123.42 424.635C1113.38 442.402 1097.39 453.329 1079.71 453.329C1055.45 453.329 1041.24 434.851 1041.24 407.579C1041.24 353.746 1089.48 343.974 1135.24 343.974V357.654V357.654ZM1198.94 511.604C1194.76 515.335 1188.72 515.602 1184.01 513.114C1163.04 495.703 1159.22 487.619 1147.76 471.007C1113.11 506.363 1088.5 516.934 1043.64 516.934C990.422 516.934 949.109 484.154 949.109 418.506C949.109 367.248 976.829 332.337 1016.45 315.28C1050.75 300.178 1098.63 297.514 1135.24 293.338V285.166C1135.24 270.153 1136.39 252.386 1127.51 239.416C1119.87 227.779 1105.12 222.982 1092.06 222.982C1067.98 222.982 1046.57 235.329 1041.33 260.914C1040.26 266.599 1036.09 272.196 1030.31 272.462L969.099 265.888C963.946 264.734 958.171 260.558 959.682 252.652C973.719 178.387 1040.88 156 1100.94 156C1131.68 156 1171.84 164.173 1196.09 187.448C1226.83 216.141 1223.9 254.429 1223.9 296.092V394.52C1223.9 424.102 1236.16 437.072 1247.71 453.062C1251.71 458.748 1252.6 465.588 1247.45 469.852C1234.56 480.601 1211.64 500.589 1199.03 511.782L1198.94 511.604" fill="#9FA6B2"/>
<path fill-rule="evenodd" clip-rule="evenodd" d="M307.127 357.654C307.127 382.261 307.749 402.782 295.311 424.635C285.271 442.402 269.369 453.329 251.6 453.329C227.346 453.329 213.219 434.851 213.219 407.579C213.219 353.745 261.461 343.974 307.127 343.974V357.654V357.654ZM370.828 511.604C366.652 515.335 360.611 515.601 355.902 513.114C334.935 495.702 331.203 487.619 319.654 471.007C285.005 506.363 260.484 516.934 215.529 516.934C162.401 516.934 121 484.154 121 418.506C121 367.248 148.808 332.336 188.343 315.28C222.637 300.178 270.523 297.513 307.127 293.338V285.165C307.127 270.152 308.282 252.385 299.486 239.416C291.757 227.778 277.009 222.981 264.038 222.981C239.961 222.981 218.461 235.329 213.219 260.914C212.153 266.599 207.978 272.195 202.292 272.462L140.99 265.888C135.837 264.733 130.151 260.558 131.572 252.652C145.698 178.387 212.775 156 272.833 156C303.573 156 343.73 164.173 367.985 187.448C398.725 216.141 395.793 254.429 395.793 296.092V394.52C395.793 424.102 408.053 437.072 419.603 453.062C423.69 458.747 424.578 465.588 419.425 469.852C406.543 480.601 383.621 500.588 371.005 511.781L370.828 511.604" fill="#9FA6B2"/>
</g>
<defs>
<clipPath id="clip0">
<rect width="2041" height="615" fill="white" transform="translate(121 156)"/>
</clipPath>
</defs>
</svg>
