<svg width="2283" height="858" viewBox="0 0 2283 858" fill="none" xmlns="http://www.w3.org/2000/svg">
<path d="M391.037 144.007C391.037 146.127 394.217 158.14 398.105 170.507C401.992 182.52 405.173 194.18 405.173 195.593C405.173 197.36 398.105 194.533 389.27 189.587C380.435 184.287 373.367 181.46 373.367 182.873C373.367 184.287 377.608 198.067 382.555 213.26C387.503 228.453 391.037 241.527 390.683 242.233C389.977 242.94 376.548 250.713 361.352 259.9C331.666 277.213 332.727 277.567 322.125 257.78C315.764 245.767 310.109 243.647 277.597 241.527C233.069 238.347 219.994 245.767 200.557 285.34C187.835 310.78 187.128 320.673 196.67 339.047C203.031 351.767 203.031 353.18 197.73 357.773C194.549 360.247 188.895 369.08 185.361 377.56C177.586 394.52 177.586 390.987 191.369 512.533C199.144 578.96 200.557 585.673 209.745 598.393C218.227 610.407 234.836 620.3 320.358 665.88C415.068 716.053 422.135 719.233 440.512 719.233C458.889 719.233 465.956 716.053 551.831 670.473C602.367 643.267 648.661 617.827 655.022 613.94C673.752 601.22 680.467 584.613 686.121 538.327C688.595 515.36 692.129 485.327 693.896 471.9C695.309 458.12 696.723 431.267 696.723 411.48C696.723 378.62 696.016 375.087 687.535 363.78L677.993 351.413L684.708 339.4C693.896 322.087 692.836 310.427 680.467 285.34C661.03 245.767 647.955 238.347 603.427 241.527C570.915 243.647 565.26 245.767 558.899 257.78C548.297 276.86 549.004 276.86 526.74 264.493C509.071 254.247 500.589 245.767 470.551 206.193C427.79 150.013 429.91 152.133 433.798 168.74C435.564 176.16 436.978 183.58 436.978 185.7C436.978 187.467 426.73 177.927 414.007 164.5C401.639 150.72 391.39 141.533 391.037 144.007ZM468.784 244C468.784 241.173 474.791 245.413 482.213 253.893C491.754 265.2 517.199 281.807 580.103 317.847C670.218 369.787 680.82 378.62 680.82 401.587C680.82 407.947 676.58 449.287 671.632 493.807C664.918 554.227 661.03 576.84 656.083 584.967C651.135 593.093 627.104 607.58 554.658 646.447C476.205 688.493 456.768 697.327 442.279 698.74C425.316 699.8 421.075 698.033 327.426 647.507C249.679 605.813 229.182 593.093 223.881 584.26C219.287 576.133 215.046 552.107 208.685 495.927C198.437 406.18 198.79 384.98 211.159 372.967C215.753 368.373 263.461 339.047 316.824 307.953C371.953 276.153 413.654 249.653 413.654 246.827C413.301 244.353 411.887 237.64 410.473 231.987L407.646 221.387L420.722 229.16C427.79 233.4 434.504 236.933 435.564 236.933C436.625 236.933 436.625 231.633 435.211 225.273L432.737 213.967L450.76 231.633C461.009 241.527 468.784 246.827 468.784 244ZM301.275 264.493C305.515 267.32 314.35 282.867 312.583 284.633C311.17 286.047 235.19 330.213 225.295 335.867C219.287 339.047 217.167 337.987 212.573 328.8C207.272 318.553 207.272 316.787 216.106 297.707C231.302 264.493 235.543 261.667 268.762 261.667C284.665 261.667 299.154 263.08 301.275 264.493ZM648.308 269.793C652.195 274.033 659.97 286.753 664.918 297.707C673.752 316.787 673.752 318.2 668.451 328.8C665.271 334.807 661.737 339.4 660.323 338.693C651.135 334.807 567.734 285.693 567.734 284.28C567.734 280.393 575.862 266.967 579.749 264.493C581.87 263.08 596.359 261.667 612.262 261.667C637.353 261.667 641.593 262.727 648.308 269.793Z" fill="#9FA6B2"/>
<path d="M321.418 386.04C304.809 394.166 302.688 422.433 317.884 433.033C346.509 453.173 378.668 415.013 353.931 390.633C345.096 381.446 334.141 379.68 321.418 386.04Z" fill="#9FA6B2"/>
<path d="M526.387 386.04C509.778 394.166 507.657 422.433 522.853 433.033C551.478 453.173 583.637 415.013 558.899 390.633C550.065 381.446 539.109 379.68 526.387 386.04Z" fill="#9FA6B2"/>
<path d="M420.368 453.88C409.413 458.827 402.698 470.487 406.939 477.2C408.353 479.32 415.421 483.914 423.195 488.154C436.978 494.867 437.331 495.574 436.624 512.534L435.564 530.2H411.533C390.33 530.2 386.089 529.14 378.668 521.367C373.72 516.774 369.833 509.707 369.833 505.467C369.833 500.874 367.359 498.4 362.765 498.4C347.215 498.4 360.291 531.967 379.728 542.214C389.269 547.16 390.33 549.634 394.217 578.607C396.691 595.567 400.225 611.467 402.345 613.94C407.646 620.3 476.911 620.3 482.212 613.94C484.332 611.467 487.866 598.394 489.987 584.967C495.995 546.454 496.348 545.747 505.89 541.507C523.913 533.027 536.988 498.4 521.792 498.4C517.198 498.4 514.724 500.874 514.724 505.467C514.724 509.707 510.837 516.774 505.89 521.367C498.468 529.14 494.228 530.2 474.084 530.2H451.113V510.767C451.113 495.22 452.527 490.627 457.475 488.86C467.37 485.327 475.851 476.494 475.851 469.78C475.851 454.587 440.865 444.694 420.368 453.88ZM432.737 575.074L433.797 604.4H423.549C412.24 604.4 411.887 603.694 406.586 562.707L404.112 543.98L417.894 545.04L431.677 546.1L432.737 575.074ZM477.265 562C477.265 570.834 475.851 583.907 474.437 590.974C472.317 602.987 470.904 604.4 461.715 604.4H451.113V574.014V543.98L464.542 545.04C477.618 546.1 477.618 546.1 477.265 562Z" fill="#9FA6B2"/>
<path d="M975.551 318.2C909.113 331.627 865.646 398.053 877.661 468.367C885.436 513.24 910.173 546.807 948.693 564.827C966.716 573.307 973.077 574.367 1005.94 574.367C1039.16 574.367 1044.82 573.307 1060.72 564.827C1070.61 559.88 1083.69 549.987 1090.05 543.273L1102.07 530.907L1088.64 522.073L1075.56 512.887L1062.13 524.547C1014.07 565.533 937.031 540.8 919.008 478.613C900.278 414.307 937.738 352.827 998.875 347.527C1023.26 345.053 1041.28 350.707 1057.54 364.84L1069.55 375.44L1082.28 365.9C1089.34 360.247 1094.29 353.887 1093.58 350.707C1092.88 347.173 1084.04 339.753 1073.44 333.393C1044.46 316.08 1011.95 311.133 975.551 318.2Z" fill="#9FA6B2"/>
<path d="M1264.63 327.387C1249.43 337.987 1258.62 364.133 1277.7 364.133C1291.84 364.133 1299.26 357.773 1299.26 345.053C1299.26 324.913 1281.24 315.727 1264.63 327.387Z" fill="#9FA6B2"/>
<path d="M1649.12 445.4V569.067H1710.26C1776.34 569.067 1797.19 565.533 1823.34 550.34C1843.84 537.973 1859.74 521.367 1871.05 500.167C1879.53 484.267 1880.24 478.613 1880.59 445.4C1880.59 414.66 1879.18 405.473 1873.17 392.047C1856.92 356.713 1824.76 333.393 1782 325.62C1770.34 323.5 1735.7 321.733 1704.96 321.733H1649.12V445.4ZM1773.16 378.62C1801.79 386.04 1818.75 410.42 1818.75 444.34C1818.4 471.193 1809.21 491.687 1791.54 503.347C1778.46 511.827 1745.24 519.6 1720.86 519.6H1709.2V447.52C1709.2 381.8 1709.9 375.087 1715.56 373.32C1723.33 371.2 1756.2 374.027 1773.16 378.62Z" fill="#9FA6B2"/>
<path d="M1977.07 393.46C1937.49 404.767 1914.87 431.974 1911.34 471.9C1908.87 505.467 1915.23 524.547 1936.78 546.454C1951.27 561.294 1959.05 566.24 1975.66 570.834C2054.82 593.8 2124.79 526.314 2099.7 452.114C2083.8 405.474 2028.67 378.974 1977.07 393.46ZM2026.9 443.634C2051.64 456.354 2054.82 494.867 2032.91 515.007C2003.22 542.214 1964 518.54 1968.24 475.787C1971.06 444.694 1999.34 429.147 2026.9 443.634Z" fill="#9FA6B2"/>
<path d="M1191.48 405.827C1185.82 409.713 1178.75 415.013 1175.93 418.193C1168.86 427.027 1164.97 425.613 1164.97 413.6C1164.97 403.353 1164.26 403 1149.07 403H1133.17V486.033V569.067H1150.84H1168.5V518.54C1168.5 477.907 1169.57 466.247 1174.87 456.353C1183.35 439.393 1196.78 430.207 1214.09 430.207C1223.28 430.207 1228.58 428.793 1228.58 425.967C1228.58 423.493 1229.64 416.427 1230.7 410.42C1232.82 399.467 1232.82 399.467 1217.63 399.467C1208.79 399.467 1197.48 402.293 1191.48 405.827Z" fill="#9FA6B2"/>
<path d="M1395.38 405.474C1324.35 430.56 1324 538.327 1394.68 568.36C1415.53 577.194 1451.22 575.074 1473.84 564.12C1526.49 538.327 1537.45 463.774 1494.69 423.494C1471.01 400.88 1429.66 393.46 1395.38 405.474ZM1469.24 444.34C1495.75 472.96 1490.09 522.78 1457.93 539.387C1441.32 547.867 1414.47 547.514 1402.8 538.68C1385.14 525.607 1379.13 513.947 1377.71 490.274C1376.3 464.127 1383.37 448.227 1402.1 435.507C1412.35 428.44 1417.29 427.38 1434.96 428.44C1454.05 429.854 1456.87 431.267 1469.24 444.34Z" fill="#9FA6B2"/>
<path d="M1260.39 486.033V569.067H1278.06H1295.73V486.033V403H1278.06H1260.39V486.033Z" fill="#9FA6B2"/>
<path d="M1562.89 533.38C1553.7 543.627 1556.53 562 1568.55 568.713C1589.4 580.373 1610.95 558.82 1599.29 537.973C1592.58 525.607 1572.43 522.78 1562.89 533.38Z" fill="#9FA6B2"/>
</svg>
