<svg id="etsqw224yir1" xmlns="http://www.w3.org/2000/svg" xmlns:xlink="http://www.w3.org/1999/xlink" viewBox="0 0 1516 1516" shape-rendering="geometricPrecision" text-rendering="geometricPrecision"><style><![CDATA[#etsqw224yir3_tr {animation: etsqw224yir3_tr__tr 3000ms linear infinite reverse forwards}@keyframes etsqw224yir3_tr__tr { 0% {transform: translate(776.703368px,757.745000px) rotate(0deg)} 13.333333% {transform: translate(776.703368px,757.745000px) rotate(25deg)} 30% {transform: translate(776.703368px,757.745000px) rotate(-25deg)} 40% {transform: translate(776.703368px,757.745000px) rotate(0deg)} 100% {transform: translate(776.703368px,757.745000px) rotate(0deg)} }]]></style><path id="etsqw224yir2" d="M705.934000,1090.280000C674.430000,1048.410000,612.917000,1044.740000,576.657000,1082.560000L559.704000,1100.240000C544.533000,1116.070000,536.063000,1137.150000,536.063000,1159.070000L536.063000,1399.490000C536.063000,1446.440000,498.007000,1484.490000,451.063000,1484.490000L446,1484.490000C399.056000,1484.490000,361,1446.440000,361,1399.490000L361,116C361,69.055900,399.056000,31,446,31L451.063000,31C498.007000,31,536.063000,69.055800,536.063000,116L536.063000,763.617000C536.063000,813.177000,598.049000,835.590000,629.745000,797.491000L629.745000,797.491000L925.555000,485.003000C940.294000,469.434000,960.788000,460.613000,982.227000,460.613000L982.227000,460.613000C1050.420000,460.613000,1085.810000,541.936000,1039.330000,591.839000L811.517000,836.429000C783.520000,866.487000,781.024000,912.265000,805.586000,945.189000L1109.720000,1352.850000C1150.250000,1407.190000,1111.480000,1484.490000,1043.690000,1484.490000L1043.690000,1484.490000C1017.810000,1484.490000,993.427000,1472.330000,977.864000,1451.650000L705.934000,1090.280000Z" fill="rgb(61,61,61)" stroke="none" stroke-width="1"/><g id="etsqw224yir3_tr" transform="translate(776.703368,757.745000) rotate(0)"><path id="etsqw224yir3" d="M734.009000,1090.280000C702.505000,1048.410000,640.992000,1044.740000,604.732000,1082.560000L587.779000,1100.240000C572.608000,1116.070000,564.138000,1137.150000,564.138000,1159.070000L564.138000,1399.490000C564.138000,1446.440000,526.082000,1484.490000,479.138000,1484.490000L474.075000,1484.490000C427.131000,1484.490000,389.075000,1446.440000,389.075000,1399.490000L389.075000,116C389.075000,69.055900,427.131000,31,474.075000,31L479.138000,31C526.082000,31,564.138000,69.055800,564.138000,116L564.138000,763.617000C564.138000,813.177000,626.124000,835.590000,657.820000,797.491000L657.820000,797.491000L953.630000,485.003000C968.368000,469.434000,988.863000,460.613000,1010.300000,460.613000L1010.300000,460.613000C1078.500000,460.613000,1113.890000,541.936000,1067.410000,591.839000L839.592000,836.429000C811.595000,866.487000,809.099000,912.265000,833.661000,945.189000L1137.790000,1352.850000C1178.330000,1407.190000,1139.550000,1484.490000,1071.760000,1484.490000L1071.760000,1484.490000C1045.880000,1484.490000,1021.500000,1472.330000,1005.940000,1451.650000L734.009000,1090.280000Z" transform="translate(-771.683495,-757.745000)" fill="rgb(88,80,236)" stroke="none" stroke-width="1"/></g></svg>