<svg width="305" height="88" viewBox="0 0 305 88" fill="none" xmlns="http://www.w3.org/2000/svg">
<g clip-path="url(#clip0)">
<path d="M39.5555 41.6917L39.5405 41.7391C39.4591 41.8262 39.4716 41.7867 39.5555 41.6917ZM39.563 41.668C39.5993 41.61 39.6307 41.5678 39.563 41.668ZM39.4916 41.7236C39.6036 41.5452 39.6714 41.3433 39.6897 41.1336C39.708 40.9239 39.6764 40.7121 39.5973 40.5145C38.2843 39.4549 30.7852 40.039 28.8234 40.5723C30.0623 34.7176 36.2582 31.7998 38.5151 26.6069C40.5838 23.9004 30.5941 24.5372 28.9435 24.2308C30.3136 21.023 32.1394 18.0254 34.3683 15.3245C34.2823 15.1499 34.1828 14.9818 34.0707 14.8217C34.1807 14.9785 34.2783 15.1431 34.3626 15.314C34.2165 14.9638 33.9917 14.6488 33.7048 14.3928C33.7988 14.4898 33.8859 14.5929 33.9654 14.7014C33.8794 14.5851 33.7858 14.4742 33.6854 14.3693C30.5551 12.5681 26.4748 12.829 22.9776 12.128C19.1611 17.4432 16.0874 23.2373 13.8356 29.3612C13.1419 32.2259 20.8507 30.6135 22.7187 31.1105C19.7155 35.8609 17.3341 40.9662 15.6291 46.3099L15.0305 48.1968C17.3575 48.0661 19.6332 47.8148 21.9935 47.9466C19.3005 57.8759 18.1517 68.1648 17.1013 78.3979C23.5453 65.6006 30.2775 52.7992 39.4916 41.7236Z" fill="#9FA6B2"/>
<path d="M73.9469 57.032C73.9469 50.228 71.8469 46.952 68.1509 42.668C64.0349 37.88 61.8509 34.94 61.8509 29.312C61.8509 24.524 62.8589 20.576 67.1429 20.576C71.0069 20.576 71.4269 24.02 69.1589 33.26H76.6349C79.8269 20.492 76.8869 14.36 67.8989 14.36C58.0709 14.36 53.9549 21.416 53.9549 30.908C53.9549 36.956 56.0549 40.82 59.7509 45.356C63.1109 49.472 66.0509 51.656 66.0509 58.628C66.0509 64.172 64.4549 68.624 60.5909 68.624C56.9789 68.624 55.5509 64.844 57.9029 55.856H50.2589C46.8149 68.54 51.0989 74.84 59.9189 74.84C69.4949 74.84 73.9469 67.364 73.9469 57.032ZM107.074 21.416L108.082 15.2H88.2584L78.0104 74H97.8344L98.9264 67.784H86.6624L90.1904 47.708H101.614L102.706 41.576H91.1984L94.7264 21.416H107.074ZM131.49 15.2L124.518 54.848L124.77 50.228L121.242 15.2H113.934L103.686 74H111.246L118.05 35.192L117.882 39.308L121.494 74H128.886L139.134 15.2H131.49ZM159.061 15.2H148.141L137.893 74H148.813C159.397 74 162.925 66.692 164.437 58.124L169.141 31.076C170.653 22.508 169.561 15.2 159.061 15.2ZM156.877 58.124C155.701 64.844 154.525 67.784 149.905 67.784H146.545L154.609 21.416H158.053C162.253 21.416 162.841 23.852 161.581 31.076L156.877 58.124ZM191.141 15.2H179.969L169.721 74H177.365L180.557 55.52H184.085C193.325 55.52 197.441 49.472 199.373 38.3L200.633 31.076C202.397 20.828 200.297 15.2 191.141 15.2ZM191.813 38.3C190.553 45.188 188.873 49.304 185.177 49.304H181.649L186.521 21.416H190.133C193.745 21.416 194.249 24.188 192.989 31.076L191.813 38.3ZM221.001 14.36C211.425 14.36 207.813 21.164 206.217 30.236L201.177 58.964C199.581 68.12 201.513 74.84 211.089 74.84C220.833 74.84 224.277 67.952 225.873 58.964L230.913 30.236C232.509 21.164 230.661 14.36 221.001 14.36ZM211.929 68.624C207.729 68.624 207.729 65.516 208.821 58.964L213.861 30.236C214.953 24.104 215.877 20.576 220.329 20.576C224.529 20.576 224.361 23.684 223.269 30.236L218.229 58.964C217.137 65.432 216.129 68.624 211.929 68.624ZM257.041 57.032C257.041 50.228 254.941 46.952 251.245 42.668C247.129 37.88 244.945 34.94 244.945 29.312C244.945 24.524 245.953 20.576 250.237 20.576C254.101 20.576 254.521 24.02 252.253 33.26H259.729C262.921 20.492 259.981 14.36 250.993 14.36C241.165 14.36 237.049 21.416 237.049 30.908C237.049 36.956 239.149 40.82 242.845 45.356C246.205 49.472 249.145 51.656 249.145 58.628C249.145 64.172 247.549 68.624 243.685 68.624C240.073 68.624 238.645 64.844 240.997 55.856H233.353C229.909 68.54 234.193 74.84 243.013 74.84C252.589 74.84 257.041 67.364 257.041 57.032ZM294.976 15.2H266.752L265.66 21.416H275.908L266.668 74H274.396L283.552 21.416H293.884L294.976 15.2Z" fill="#9FA6B2"/>
</g>
<defs>
<clipPath id="clip0">
<rect width="305" height="88" fill="white"/>
</clipPath>
</defs>
</svg>
