<svg width="353" height="133" viewBox="0 0 353 133" fill="none" xmlns="http://www.w3.org/2000/svg">
<rect width="353" height="133" fill="#5F4DE9"/>
<path d="M105.209 78.032C105.209 71.228 103.109 67.952 99.4134 63.668C95.2974 58.88 93.1134 55.94 93.1134 50.312C93.1134 45.524 94.1214 41.576 98.4054 41.576C102.269 41.576 102.689 45.02 100.421 54.26H107.897C111.089 41.492 108.149 35.36 99.1614 35.36C89.3334 35.36 85.2174 42.416 85.2174 51.908C85.2174 57.956 87.3174 61.82 91.0134 66.356C94.3734 70.472 97.3134 72.656 97.3134 79.628C97.3134 85.172 95.7174 89.624 91.8534 89.624C88.2414 89.624 86.8134 85.844 89.1654 76.856H81.5214C78.0774 89.54 82.3614 95.84 91.1814 95.84C100.757 95.84 105.209 88.364 105.209 78.032ZM138.337 42.416L139.345 36.2H119.521L109.273 95H129.097L130.189 88.784H117.925L121.453 68.708H132.877L133.969 62.576H122.461L125.989 42.416H138.337ZM162.753 36.2L155.781 75.848L156.033 71.228L152.505 36.2H145.197L134.949 95H142.509L149.313 56.192L149.145 60.308L152.757 95H160.149L170.397 36.2H162.753ZM190.324 36.2H179.404L169.156 95H180.076C190.66 95 194.188 87.692 195.7 79.124L200.404 52.076C201.916 43.508 200.824 36.2 190.324 36.2ZM188.14 79.124C186.964 85.844 185.788 88.784 181.168 88.784H177.808L185.872 42.416H189.316C193.516 42.416 194.104 44.852 192.844 52.076L188.14 79.124ZM222.404 36.2H211.232L200.984 95H208.628L211.82 76.52H215.348C224.588 76.52 228.704 70.472 230.636 59.3L231.896 52.076C233.66 41.828 231.56 36.2 222.404 36.2ZM223.076 59.3C221.816 66.188 220.136 70.304 216.44 70.304H212.912L217.784 42.416H221.396C225.008 42.416 225.512 45.188 224.252 52.076L223.076 59.3ZM252.263 35.36C242.687 35.36 239.075 42.164 237.479 51.236L232.439 79.964C230.843 89.12 232.775 95.84 242.351 95.84C252.095 95.84 255.539 88.952 257.135 79.964L262.175 51.236C263.771 42.164 261.923 35.36 252.263 35.36ZM243.191 89.624C238.991 89.624 238.991 86.516 240.083 79.964L245.123 51.236C246.215 45.104 247.139 41.576 251.591 41.576C255.791 41.576 255.623 44.684 254.531 51.236L249.491 79.964C248.399 86.432 247.391 89.624 243.191 89.624ZM288.303 78.032C288.303 71.228 286.203 67.952 282.507 63.668C278.391 58.88 276.207 55.94 276.207 50.312C276.207 45.524 277.215 41.576 281.499 41.576C285.363 41.576 285.783 45.02 283.515 54.26H290.991C294.183 41.492 291.243 35.36 282.255 35.36C272.427 35.36 268.311 42.416 268.311 51.908C268.311 57.956 270.411 61.82 274.107 66.356C277.467 70.472 280.407 72.656 280.407 79.628C280.407 85.172 278.811 89.624 274.947 89.624C271.335 89.624 269.907 85.844 272.259 76.856H264.615C261.171 89.54 265.455 95.84 274.275 95.84C283.851 95.84 288.303 88.364 288.303 78.032ZM326.238 36.2H298.014L296.922 42.416H307.17L297.93 95H305.658L314.814 42.416H325.146L326.238 36.2Z" fill="white"/>
<path d="M70.5554 62.6917L70.5404 62.7391C70.459 62.8262 70.4715 62.7867 70.5554 62.6917ZM70.563 62.668C70.5993 62.61 70.6306 62.5678 70.563 62.668ZM70.4916 62.7236C70.6035 62.5452 70.6713 62.3433 70.6896 62.1336C70.708 61.9239 70.6764 61.712 70.5973 61.5145C69.2842 60.4549 61.7851 61.039 59.8233 61.5723C61.0622 55.7176 67.2582 52.7998 69.5151 47.6069C71.5837 44.9003 61.5941 45.5372 59.9435 45.2308C61.3135 42.023 63.1393 39.0254 65.3682 36.3245C65.2823 36.1499 65.1828 35.9818 65.0706 35.8217C65.1807 35.9784 65.2783 36.143 65.3626 36.314C65.2165 35.9638 64.9916 35.6488 64.7048 35.3928C64.7988 35.4898 64.8859 35.5929 64.9654 35.7014C64.8793 35.5851 64.7858 35.4741 64.6853 35.3693C61.555 33.5681 57.4747 33.829 53.9775 33.128C50.1611 38.4432 47.0874 44.2373 44.8355 50.3612C44.1418 53.2259 51.8506 51.6135 53.7186 52.1105C50.7154 56.8608 48.3341 61.9662 46.629 67.3099L46.0304 69.1968C48.3575 69.0661 50.6331 68.8148 52.9934 68.9466C50.3005 78.8759 49.1517 89.1648 48.1012 99.3979C54.5452 86.6006 61.2774 73.7992 70.4916 62.7236Z" fill="#FDDE2D"/>
</svg>
